<?xml version="1.0" encoding="UTF-8"?>
<!DOCTYPE svg PUBLIC "-//W3C//DTD SVG 1.1//EN" "http://www.w3.org/Graphics/SVG/1.1/DTD/svg11.dtd">
<!-- Creator: CorelDRAW 2019 (64 Bit) -->
<svg xmlns="http://www.w3.org/2000/svg" xml:space="preserve" width="32.9232mm" height="31.05mm" version="1.1" style="shape-rendering:geometricPrecision; text-rendering:geometricPrecision; image-rendering:optimizeQuality; fill-rule:evenodd; clip-rule:evenodd"
viewBox="0 0 12297.34 11597.67"
 xmlns:xlink="http://www.w3.org/1999/xlink">
 <defs>
  <style type="text/css">
   <![CDATA[
    .str0 {stroke:#018BF1;stroke-width:74.7;stroke-miterlimit:22.9256}
    .fil0 {fill:#018BF1;fill-rule:nonzero}
   ]]>
  </style>
 </defs>
 <g id="Camada_x0020_1">
  <metadata id="CorelCorpID_0Corel-Layer"/>
  <path class="fil0 str0" d="M8455.99 11545.76l-8400.11 0c1.2,-3020.89 1.2,-6041.85 0,-9062.73l8493.46 0c1.2,3020.89 1.2,6041.85 0,9062.73l-93.34 0zm-8213.32 -186.76l8119.94 0 0 -8689.22 -8119.94 0 0 8689.22z"/>
  <polygon class="fil0 str0" points="8404.93,2498.71 12143.6,37.39 12259.99,37.87 12259.99,8280.22 8549.33,11545.76 8395.07,11381.97 12073.23,8195.65 12073.23,303.67 8507.05,2654.09 "/>
  <polygon class="fil0 str0" points="12166.61,224.15 3887.18,224.15 200.35,2654.09 55.88,2483.02 3832.65,37.39 12166.61,37.39 "/>
  <path class="fil0" d="M3953.29 317.53l-186.76 0 0 -186.76 186.76 0 0 186.76zm-3644.43 11120.17l-122.29 -141.19 141.19 -122.29 122.29 141.19 -141.19 122.29zm282.38 -244.58l-122.29 -141.19 141.19 -122.29 122.29 141.19 -141.19 122.29zm282.38 -244.58l-122.29 -141.19 141.15 -122.29 122.29 141.19 -141.15 122.29zm282.3 -244.58l-122.29 -141.19 141.15 -122.29 122.29 141.19 -141.15 122.29zm282.3 -244.58l-122.29 -141.19 141.15 -122.29 122.29 141.19 -141.15 122.29zm282.3 -244.58l-122.29 -141.19 141.15 -122.29 122.29 141.19 -141.15 122.29zm282.3 -244.58l-122.29 -141.19 141.15 -122.29 122.29 141.19 -141.15 122.29zm282.3 -244.58l-122.29 -141.19 141.15 -122.29 122.29 141.19 -141.15 122.29zm282.3 -244.58l-122.29 -141.19 141.15 -122.29 122.29 141.19 -141.15 122.29zm282.3 -244.58l-122.29 -141.19 141.15 -122.29 122.29 141.19 -141.15 122.29zm282.3 -244.58l-122.29 -141.19 141.15 -122.25 122.29 141.19 -141.15 122.25zm282.3 -244.5l-122.29 -141.19 141.15 -122.25 122.29 141.19 -141.15 122.25zm282.3 -244.5l-122.29 -141.19 141.15 -122.25 122.29 141.19 -141.15 122.25zm256.64 -341.54l-186.76 0 0 -186.76 186.76 0 0 186.76zm0 -373.52l-186.76 0 0 -186.76 186.76 0 0 186.76zm0 -373.52l-186.76 0 0 -186.76 186.76 0 0 186.76zm0 -373.52l-186.76 0 0 -186.76 186.76 0 0 186.76zm0 -373.52l-186.76 0 0 -186.76 186.76 0 0 186.76zm0 -373.52l-186.76 0 0 -186.76 186.76 0 0 186.76zm0 -373.52l-186.76 0 0 -186.76 186.76 0 0 186.76zm0 -373.52l-186.76 0 0 -186.76 186.76 0 0 186.76zm0 -373.52l-186.76 0 0 -186.76 186.76 0 0 186.76zm0 -373.52l-186.76 0 0 -186.76 186.76 0 0 186.76zm0 -373.52l-186.76 0 0 -186.76 186.76 0 0 186.76zm0 -373.52l-186.76 0 0 -186.76 186.76 0 0 186.76zm0 -373.52l-186.76 0 0 -186.76 186.76 0 0 186.76zm0 -373.52l-186.76 0 0 -186.76 186.76 0 0 186.76zm0 -373.52l-186.76 0 0 -186.76 186.76 0 0 186.76zm0 -373.52l-186.76 0 0 -186.76 186.76 0 0 186.76zm0 -373.52l-186.76 0 0 -186.76 186.76 0 0 186.76zm0 -373.52l-186.76 0 0 -186.76 186.76 0 0 186.76zm0 -373.52l-186.76 0 0 -186.76 186.76 0 0 186.76zm0 -373.52l-186.76 0 0 -186.76 186.76 0 0 186.76zm0 -373.52l-186.76 0 0 -186.76 186.76 0 0 186.76z"/>
  <path class="fil0" d="M8455.99 8144.56l-113.89 0 0 186.76 113.89 0 0 -186.76zm-300.64 0l0 186.76 -186.76 0 0 -186.76 186.76 0zm-373.52 0l0 186.76 -186.76 0 0 -186.76 186.76 0zm-373.52 0l0 186.76 -186.76 0 0 -186.76 186.76 0zm-373.52 0l0 186.76 -186.76 0 0 -186.76 186.76 0zm-373.52 0l0 186.76 -186.76 0 0 -186.76 186.76 0zm-373.52 0l0 186.76 -186.76 0 0 -186.76 186.76 0zm-373.52 0l0 186.76 -186.76 0 0 -186.76 186.76 0zm-747.03 0l0 186.76 -186.76 0 0 -186.76 186.76 0zm-373.52 0l0 186.76 -186.76 0 0 -186.76 186.76 0zm-373.52 0l0 186.76 -186.76 0 0 -186.76 186.76 0z"/>
  <polygon class="fil0 str0" points="12101.7,8304.68 8391.08,4683.22 8520.91,4549.72 12231.53,8171.19 "/>
  <path class="fil0" d="M306.21 2607.4l-122.18 85.12 -102.9 -52.33 136.33 -127.59 88.75 94.8zm8206.07 8768.48l-136.33 127.59 -93.04 -37.54 152.17 -118.67 77.21 28.61zm-255.26 -272.74l-136.33 127.59 -127.63 -136.37 136.33 -127.59 127.63 136.37zm-255.26 -272.74l-136.33 127.59 -127.63 -136.37 136.33 -127.59 127.63 136.37zm-255.26 -272.74l-136.33 127.59 -127.63 -136.37 136.33 -127.59 127.63 136.37zm-255.26 -272.74l-136.33 127.59 -127.63 -136.37 136.33 -127.59 127.63 136.37zm-255.26 -272.74l-136.33 127.59 -127.63 -136.37 136.33 -127.59 127.63 136.37zm-255.26 -272.74l-136.33 127.59 -127.63 -136.37 136.33 -127.59 127.63 136.37zm-255.26 -272.74l-136.33 127.59 -127.63 -136.37 136.33 -127.59 127.63 136.37zm-255.26 -272.74l-136.33 127.59 -127.63 -136.37 136.33 -127.59 127.63 136.37zm-255.26 -272.74l-136.33 127.59 -127.63 -136.37 136.33 -127.59 127.63 136.37zm-255.26 -272.74l-136.33 127.59 -127.63 -136.37 136.33 -127.59 127.63 136.37zm-255.26 -272.74l-136.33 127.59 -127.63 -136.37 136.33 -127.59 127.63 136.37zm-255.26 -272.74l-136.33 127.59 -127.63 -136.37 136.33 -127.59 127.63 136.37zm-255.26 -272.74l-136.33 127.59 -127.63 -136.37 136.33 -127.59 127.63 136.37zm-255.26 -272.74l-136.33 127.59 -127.63 -136.37 136.33 -127.59 127.63 136.37zm-255.26 -272.74l-136.33 127.59 -127.63 -136.37 136.33 -127.59 127.63 136.37zm-255.26 -272.74l-136.33 127.59 -127.63 -136.37 136.33 -127.59 127.63 136.37zm-255.26 -272.74l-136.33 127.59 -127.59 -136.37 136.33 -127.59 127.59 136.37zm-510.37 -545.48l-136.33 127.59 -127.59 -136.37 136.33 -127.59 127.59 136.37zm-255.19 -272.74l-136.33 127.59 -127.59 -136.37 136.33 -127.59 127.59 136.37zm-255.19 -272.74l-136.33 127.59 -127.59 -136.37 136.33 -127.59 127.59 136.37zm-255.19 -272.7l-136.33 127.59 -127.59 -136.33 136.33 -127.59 127.59 136.33zm-255.19 -272.67l-136.33 127.59 -127.59 -136.33 136.33 -127.59 127.59 136.33zm-255.19 -272.67l-136.33 127.59 -127.59 -136.33 136.33 -127.59 127.59 136.33zm-255.19 -272.67l-136.33 127.59 -127.59 -136.33 136.33 -127.59 127.59 136.33zm-255.19 -272.67l-136.33 127.59 -127.59 -136.33 136.33 -127.59 127.59 136.33zm-255.19 -272.67l-136.33 127.59 -127.59 -136.33 136.33 -127.59 127.59 136.33zm-255.19 -272.67l-136.33 127.59 -127.59 -136.33 136.33 -127.59 127.59 136.33zm-255.19 -272.67l-136.33 127.59 -127.59 -136.33 136.33 -127.59 127.59 136.33zm-255.19 -272.67l-136.33 127.59 -127.59 -136.33 136.33 -127.59 127.59 136.33zm-255.19 -272.67l-136.33 127.59 -127.59 -136.33 136.33 -127.59 127.59 136.33z"/>
  <path class="fil0" d="M4058.77 194.38l-130.43 133.64 -133.64 -130.43 130.43 -133.64 133.64 130.43zm4462.43 4355.27l-51.92 -50.65 -130.43 133.64 51.92 50.65 130.43 -133.64zm-185.6 -181.12l-130.43 133.64 -133.68 -130.47 130.43 -133.64 133.68 130.47zm-267.36 -260.94l-130.43 133.64 -133.68 -130.47 130.43 -133.64 133.68 130.47zm-267.36 -260.94l-130.43 133.64 -133.68 -130.47 130.43 -133.64 133.68 130.47zm-267.36 -260.94l-130.43 133.64 -133.64 -130.47 130.43 -133.64 133.64 130.47zm-267.29 -260.94l-130.43 133.64 -133.64 -130.47 130.43 -133.64 133.64 130.47zm-267.29 -260.9l-130.43 133.64 -133.64 -130.43 130.43 -133.64 133.64 130.43zm-267.29 -260.86l-130.43 133.64 -133.64 -130.43 130.43 -133.64 133.64 130.43zm-267.29 -260.86l-130.43 133.64 -133.64 -130.43 130.43 -133.64 133.64 130.43zm-267.29 -260.86l-130.43 133.64 -133.64 -130.43 130.43 -133.64 133.64 130.43zm-267.29 -260.86l-130.43 133.64 -133.64 -130.43 130.43 -133.64 133.64 130.43zm-267.29 -260.86l-130.43 133.64 -133.64 -130.43 130.43 -133.64 133.64 130.43zm-267.29 -260.86l-130.43 133.64 -133.64 -130.43 130.43 -133.64 133.64 130.43zm-267.29 -260.86l-130.43 133.64 -133.64 -130.43 130.43 -133.64 133.64 130.43zm-267.29 -260.86l-130.43 133.64 -133.64 -130.43 130.43 -133.64 133.64 130.43zm-267.29 -260.86l-130.43 133.64 -133.64 -130.43 130.43 -133.64 133.64 130.43zm-267.29 -260.86l-130.43 133.64 -133.64 -130.43 130.43 -133.64 133.64 130.43z"/>
  <polygon class="fil0 str0" points="12166.61,8331.31 8455.99,8331.31 8455.99,8144.56 12166.61,8144.56 "/>
 </g>
</svg>
